# xmcd CD database file
# Copyright (C) 1993-1996 Ti Kan
#
# Track frame offsets:
#  150
#  12441
#  32279
#  45555
#  57429
#  67469
#  77288
#  89625
#  99905
#  113462
#  126148
#  139393
#  152753
#  170903
#  183773
#  197391
#  208934
#  220132
#  232488
#  243628
#
# Disc length: 3445 seconds
#
# Revision: 5
# Processed by: cddbd v1.5.2PL0 Copyright (c) Steve Scherf et al.
# Submitted via: Advanced CD Ripper Pro 2.0
#
DISCID=1f0d7314
DTITLE=Various Artist - Ultimate Country Box - Disc 1
DYEAR=1999
DGENRE=Country
TTITLE0=Tammy Wynette - Stand By Your Man
TTITLE1=Marty Robbins - El Paso
TTITLE2=Charlie Rich - Behind Closed Doors
TTITLE3=Johnny Cash - I Walk the Line
TTITLE4=Brenda Lee - I'm Sorry
TTITLE5=Ned Miller - From a Jack To a King
TTITLE6=Glen Campbell - Rhinestone Cowboy
TTITLE7=Leroy van Dyke - Walk on By
TTITLE8=Pattie Page - Tennessee Waltz
TTITLE9=Charley Pride - Crystal Chandeliers
TTITLE10=Kenny Rogers and The First Edition - Ruby, Don't Take Your Love To Town
TTITLE11=Lynn Anderson - Rose Garden
TTITLE12=Billy Swan - I Can Help
TTITLE13=Lee Hazlewood - These Boots Were Made for Walking
TTITLE14=Jimmy Dean - Big Bad John
TTITLE15=Johnny Horton - The Battle of New Orleans
TTITLE16=Stonewall Jackson - Waterloo
TTITLE17=Freddy Fender - Wasted Days And Wasted Nights
TTITLE18=Don Gibson - Oh Lonesome Me
TTITLE19=Jeannie Riley - Harper Valley Pta
EXTD=
EXTT0=
EXTT1=
EXTT2=
EXTT3=
EXTT4=
EXTT5=
EXTT6=
EXTT7=
EXTT8=
EXTT9=
EXTT10=
EXTT11=
EXTT12=
EXTT13=
EXTT14=
EXTT15=
EXTT16=
EXTT17=
EXTT18=
EXTT19=
PLAYORDER=
